<svg aria-hidden="true" style="position: absolute; width: 0; height: 0; overflow: hidden;" version="1.1" xmlns="http://www.w3.org/2000/svg" xmlns:xlink="http://www.w3.org/1999/xlink">
  <defs>
    <symbol id="checkmark" viewBox="0 0 32 32" width="32" height="32">
      <title>Checkmark</title>
      <path d="M13 21.2L5.9 14.1 4.5 15.5 11.6 22.6 13 24 27.1 9.9 25.7 8.4z"></path>
    </symbol>
    <symbol id="close" width="32" height="32" viewBox="0 0 32 32">
      <title>Close</title>
      <path d="M24 9.4L22.6 8 16 14.6 9.4 8 8 9.4 14.6 16 8 22.6 9.4 24 16 17.4 22.6 24 24 22.6 17.4 16 24 9.4z"></path>
    </symbol>
    <symbol id="edit" width="32" height="32" viewBox="0 0 32 32">
      <title>Edit</title>
      <path d="M2 27H30V29H2zM25.41 9a2 2 0 0 0 0-2.83L21.83 2.59a2 2 0 0 0-2.83 0l-15 15V24h6.41zm-5-5L24 7.59l-3 3L17.41 7zM6 22V18.41l10-10L19.59 12l-10 10z"></path>
    </symbol>
    <symbol id="link" width="32" height="32" viewBox="0 0 32 32">
      <title>Link</title>
      <path d="M29.25,6.76a6,6,0,0,0-8.5,0l1.42,1.42a4,4,0,1,1,5.67,5.67l-8,8a4,4,0,1,1-5.67-5.66l1.41-1.42-1.41-1.42-1.42,1.42a6,6,0,0,0,0,8.5A6,6,0,0,0,17,25a6,6,0,0,0,4.27-1.76l8-8A6,6,0,0,0,29.25,6.76Z"></path>
      <path d="M4.19,24.82a4,4,0,0,1,0-5.67l8-8a4,4,0,0,1,5.67,0A3.94,3.94,0,0,1,19,14a4,4,0,0,1-1.17,2.85L15.71,19l1.42,1.42,2.12-2.12a6,6,0,0,0-8.51-8.51l-8,8a6,6,0,0,0,0,8.51A6,6,0,0,0,7,28a6.07,6.07,0,0,0,4.28-1.76L9.86,24.82A4,4,0,0,1,4.19,24.82Z"></path>
    </symbol>
    <symbol id="search" width="32" height="32" viewBox="0 0 32 32">
      <title>Search</title>
      <path d="M30,28.59,22.45,21A11,11,0,1,0,21,22.45L28.59,30ZM5,14a9,9,0,1,1,9,9A9,9,0,0,1,5,14Z"></path>
    </symbol>
    <symbol id="unlink" width="32" height="32" viewBox="0 0 32 32">
      <title>Unlink</title>
      <path d="M5 3.59H7V8.42H5z" transform="rotate(-45.01 5.996 6.005)"></path>
      <path d="M25 23.58H27V28.409999999999997H25z" transform="rotate(-44.99 25.995 25.999)"></path>
      <path d="M11 2H13V6H11zM2 11H6V13H2zM26 19H30V21H26zM19 26H21V30H19zM16.58 21.07l-3.71 3.72a4 4 0 1 1-5.66-5.66l3.72-3.72L9.51 14 5.8 17.72a6 6 0 0 0-.06 8.54A6 6 0 0 0 10 28a6.07 6.07 0 0 0 4.32-1.8L18 22.49zM15.41 10.93l3.72-3.72a4 4 0 1 1 5.66 5.66l-3.72 3.72L22.49 18l3.71-3.72a6 6 0 0 0 .06-8.54A6 6 0 0 0 22 4a6.07 6.07 0 0 0-4.32 1.8L14 9.51z"></path>
    </symbol>
  </defs>
</svg>
